<svg width="39" height="44" viewBox="0 0 39 44" fill="none" xmlns="http://www.w3.org/2000/svg">
<path d="M18.5947 15.9838C19.4486 16.6139 20.6569 16.005 20.6569 14.9446V12.0383C20.6569 11.8855 20.7897 11.7659 20.9416 11.7843C27.3413 12.5624 32.2988 18.0081 32.2988 24.6104C32.2988 31.7467 26.507 37.5318 19.3623 37.5318C12.6538 37.5318 7.13797 32.4314 6.48955 25.9012C6.41904 25.191 5.84656 24.6109 5.13208 24.611L1.25353 24.6116C0.539212 24.6118 -0.0442716 25.192 0.00264511 25.9039C0.668304 36.0051 9.08199 43.9923 19.3634 43.9923C30.0795 43.9923 38.7666 35.3154 38.7666 24.6119C38.7666 14.4247 30.8974 6.07331 20.8994 5.29121C20.7635 5.28059 20.6569 5.16793 20.6569 5.0318V1.97844C20.6569 0.917985 19.4485 0.309104 18.5947 0.939316L9.81031 7.42269C9.11054 7.93917 9.11056 8.98453 9.81035 9.50097L18.5947 15.9838Z" fill="#F5F5F5"/>
</svg>
