<svg width="40" height="40" viewBox="0 0 40 40" fill="none" xmlns="http://www.w3.org/2000/svg">
<path d="M22.5931 39.1821C23.4419 39.1821 24.13 38.5091 24.13 37.6788V23.9981C24.13 23.8321 24.2676 23.6975 24.4373 23.6975L38.4221 23.6975C39.2709 23.6975 39.959 23.0244 39.959 22.1941V17.0828C39.959 16.2526 39.2709 15.5795 38.4221 15.5795L24.4373 15.5795C24.2676 15.5795 24.13 15.4449 24.13 15.2788V1.59903C24.13 0.768767 23.4419 0.0957031 22.5931 0.0957031H17.3677C16.5189 0.0957031 15.8308 0.768768 15.8308 1.59903V15.2788C15.8308 15.4449 15.6932 15.5795 15.5234 15.5795L1.53688 15.5795C0.688086 15.5795 0 16.2526 0 17.0828V22.1941C0 23.0244 0.688088 23.6975 1.53689 23.6975L15.5234 23.6975C15.6932 23.6975 15.8308 23.8321 15.8308 23.9981V37.6788C15.8308 38.5091 16.5189 39.1821 17.3677 39.1821H22.5931Z" fill="#F5F5F5"/>
</svg>
